<svg id="Layer_1" data-name="Layer 1" xmlns="http://www.w3.org/2000/svg" viewBox="0 0 1309.47 90"><defs><style>.cls-1{fill:#760aa3;}.cls-2{fill:#2e4858;}.cls-3{fill:none;}</style></defs><path class="cls-1" d="M755.9,32.77h16.32V34h-15V45.13h14.76v1.2H757.18V58.26h15v1.2H755.9Z"/><path class="cls-1" d="M791.47,46.73,781.38,59.46H779.7l11-13.69-10.45-13H782l9.45,12,9.44-12h1.72l-10.44,13,11,13.73h-1.68Z"/><path class="cls-1" d="M811.75,32.77H821c5,0,7.8,3.48,7.8,7.56a7.39,7.39,0,0,1-7.8,7.56h-8V59.46h-1.28ZM821,34H813V46.69H821a6.09,6.09,0,0,0,6.44-6.36A6.09,6.09,0,0,0,821,34Z"/><path class="cls-1" d="M838,32.77h16.32V34h-15V45.13H854v1.2H839.23V58.26h15v1.2H838Z"/><path class="cls-1" d="M872,47.93h-6.4V59.46h-1.28V32.77h9.2c4.32,0,7.88,2.68,7.88,7.56s-3.56,7.6-7.88,7.6l8.24,11.53h-1.64Zm1.52-14h-7.92V46.73h7.92a6.15,6.15,0,0,0,6.48-6.4A6.12,6.12,0,0,0,873.47,34Z"/><path class="cls-1" d="M891.43,32.77h1.28V59.46h-1.28Z"/><path class="cls-1" d="M903.75,32.77h16.33V34H905V45.13H919.8v1.2H905V58.26h15.05v1.2H903.75Z"/><path class="cls-1" d="M931.36,34.85V59.46h-1.28V32.77h1.28l18,24.37V32.77h1.28V59.46h-1.28Z"/><path class="cls-1" d="M968.68,34h-9v-1.2H979V34h-9V59.46h-1.28Z"/><path class="cls-1" d="M988,32.77h1.28V59.46H988Z"/><path class="cls-1" d="M1017,52.29h-14.89l-3,7.17h-1.48l11.13-26.69h1.52l11.12,26.69H1020Zm-14.41-1.2h13.93l-7-16.84Z"/><path class="cls-1" d="M1029.81,32.77h1.28V58.26h13.4v1.2h-14.68Z"/><path class="cls-1" d="M1068.17,32.77h1.28V58.26h13.4v1.2h-14.68Z"/><path class="cls-1" d="M1092.13,32.77h16.33V34h-15V45.13h14.76v1.2h-14.76V58.26h15v1.2h-16.33Z"/><path class="cls-1" d="M1135.1,52.29h-14.89l-3,7.17h-1.48l11.13-26.69h1.52l11.12,26.69h-1.48Zm-14.41-1.2h13.93l-7-16.84Z"/><path class="cls-1" d="M1155.58,47.93h-6.4V59.46h-1.28V32.77h9.2c4.32,0,7.88,2.68,7.88,7.56s-3.56,7.6-7.88,7.6l8.24,11.53h-1.64Zm1.52-14h-7.92V46.73h7.92a6.15,6.15,0,0,0,6.48-6.4A6.12,6.12,0,0,0,1157.1,34Z"/><path class="cls-1" d="M1176.34,34.85V59.46h-1.28V32.77h1.28l18,24.37V32.77h1.28V59.46h-1.28Z"/><path class="cls-1" d="M1206.66,32.77h1.28V59.46h-1.28Z"/><path class="cls-1" d="M1220.26,34.85V59.46H1219V32.77h1.28l18,24.37V32.77h1.28V59.46h-1.28Z"/><path class="cls-1" d="M1263,32.33a12.91,12.91,0,0,1,9.76,4.12l-.84.88a11.89,11.89,0,0,0-8.92-3.8c-6.68,0-11.92,5.08-11.92,12.6s5.24,12.65,11.92,12.65a11.89,11.89,0,0,0,8.48-3.61V47.85h-11v-1.2h12.28V55.7A13,13,0,0,1,1263,60c-7.4,0-13.32-5.65-13.32-13.85S1255.59,32.33,1263,32.33Z"/><path class="cls-2" d="M703.09,58.79a14.47,14.47,0,0,0,11-4.84V44H701.45v4.12h8v4.16a9.78,9.78,0,0,1-6.32,2.4c-5.28,0-9.2-4.08-9.2-9.68s3.92-9.64,9.2-9.64A8.49,8.49,0,0,1,710,38.87l3.84-2.16a12.54,12.54,0,0,0-10.76-5.56c-7.72,0-14,5.44-14,13.8s6.28,13.84,14,13.84m-22.48-.52V31.59h-4.68V50.11L662.29,31.59h-4.8V58.27h4.68v-19l13.92,19Zm-32.8-26.68h-4.68V58.27h4.68ZM624.65,58.75a12.11,12.11,0,0,0,10.72-6l-4-2a7.83,7.83,0,0,1-6.72,3.88c-5.28,0-9.2-4-9.2-9.64s3.92-9.64,9.2-9.64a7.92,7.92,0,0,1,6.72,3.88l4-2a12.06,12.06,0,0,0-10.72-6c-7.88,0-14,5.6-14,13.8s6.12,13.8,14,13.8M593.81,44.19h-6.4V35.71h6.4c2.64,0,4.56,1.68,4.56,4.24s-1.92,4.24-4.56,4.24m9.56,14.08-6.52-10.48A7.48,7.48,0,0,0,603.17,40c0-4.92-3.44-8.36-8.72-8.36H582.73V58.27h4.68v-10h4.64l5.92,10Zm-41.84.48c7.72,0,11.52-4.4,11.52-11V31.59h-4.72v16c0,4.24-2.36,7-6.8,7s-6.84-2.76-6.84-7v-16H550V47.75c0,6.56,3.8,11,11.56,11m-33.72-4.16c-5.4,0-8.84-4.16-8.84-9.64s3.44-9.64,8.84-9.64,8.84,4.12,8.84,9.64-3.48,9.64-8.84,9.64m0,4.16c8,0,13.64-5.84,13.64-13.8s-5.64-13.8-13.64-13.8S514.17,37,514.17,45s5.64,13.8,13.64,13.8m-31.08,0c7.2,0,10.32-3.8,10.32-8.24,0-5.8-5.24-7.16-9.64-8.28-3.16-.8-5.88-1.48-5.88-3.56s1.76-3.32,4.52-3.32a10.85,10.85,0,0,1,7.72,3l2.68-3.48a13.88,13.88,0,0,0-10-3.72c-5.84,0-9.72,3.4-9.72,7.8,0,5.64,5.12,6.92,9.48,8,3.24.84,6.08,1.56,6.08,4,0,1.76-1.52,3.64-5.36,3.64a11.51,11.51,0,0,1-8.44-3.68l-2.6,3.6c2.36,2.52,5.92,4.24,10.84,4.24m-31.6-4.6h-5.24V35.71h5.24c6,0,9.16,4.08,9.16,9.24s-3.36,9.2-9.16,9.2m0,4.12c8.32,0,14-5.48,14-13.32s-5.64-13.36-14-13.36h-9.92V58.27Zm-24.64,0,7.6-26.68h-5.24l-5.16,20.56-5.52-20.56h-3.72l-5.52,20.56-5.2-20.56h-5.24l7.64,26.68h5l5.16-19.68,5.2,19.68Zm-46.76-3.68c-5.4,0-8.84-4.16-8.84-9.64s3.44-9.64,8.84-9.64,8.84,4.12,8.84,9.64-3.48,9.64-8.84,9.64m0,4.16c8,0,13.64-5.84,13.64-13.8s-5.64-13.8-13.64-13.8S380.09,37,380.09,45s5.64,13.8,13.64,13.8M363.25,44.19h-6.4V35.71h6.4c2.64,0,4.56,1.68,4.56,4.24s-1.92,4.24-4.56,4.24m9.56,14.08-6.52-10.48A7.48,7.48,0,0,0,372.61,40c0-4.92-3.44-8.36-8.72-8.36H352.17V58.27h4.68v-10h4.64l5.92,10Zm-39.12.48a12.11,12.11,0,0,0,10.72-6l-4-2a7.83,7.83,0,0,1-6.72,3.88c-5.28,0-9.2-4-9.2-9.64s3.92-9.64,9.2-9.64a7.92,7.92,0,0,1,6.72,3.88l4-2a12.06,12.06,0,0,0-10.72-6c-7.88,0-14,5.6-14,13.8s6.12,13.8,14,13.8M288.57,44.19h-6.4V35.71h6.4c2.64,0,4.56,1.68,4.56,4.24s-1.92,4.24-4.56,4.24m9.56,14.08-6.52-10.48A7.48,7.48,0,0,0,297.93,40c0-4.92-3.44-8.36-8.72-8.36H277.49V58.27h4.68v-10h4.64l5.92,10Zm-29.44,0V54.15h-13.6v-7.4h13.32V42.63H255.09V35.71h13.6V31.59H250.41V58.27Zm-34.32,0V35.71h8.08V31.59H221.61v4.12h8.08V58.27ZM205.69,44.19h-6.4V35.71h6.4c2.64,0,4.56,1.68,4.56,4.24s-1.92,4.24-4.56,4.24m9.56,14.08-6.52-10.48A7.48,7.48,0,0,0,215.05,40c0-4.92-3.44-8.36-8.72-8.36H194.61V58.27h4.68v-10h4.64l5.92,10ZM179.09,49h-9.6l4.8-12.72Zm8.6,9.24L177.21,31.59h-5.84L160.89,58.27h5.32l2-5.12h12.24l2,5.12Zm-33.68,0V31.59h-6.6l-7.28,17.56-7.24-17.56h-6.6V58.27H131V38.47l8.16,19.8h2l8.2-19.8v19.8Zm-46.36.48c7.2,0,10.32-3.8,10.32-8.24,0-5.8-5.24-7.16-9.64-8.28-3.16-.8-5.88-1.48-5.88-3.56s1.76-3.32,4.52-3.32a10.85,10.85,0,0,1,7.72,3l2.68-3.48a13.88,13.88,0,0,0-10-3.72c-5.84,0-9.72,3.4-9.72,7.8,0,5.64,5.12,6.92,9.48,8,3.24.84,6.08,1.56,6.08,4,0,1.76-1.52,3.64-5.36,3.64a11.51,11.51,0,0,1-8.44-3.68l-2.6,3.6c2.36,2.52,5.92,4.24,10.84,4.24"/><polygon class="cls-3" points="72.35 62.01 72.35 28.35 42.66 11.53 12.97 28.35 12.97 62.01 42.66 78.83 72.35 62.01"/><path class="cls-2" d="M19.41,32V57.68a33.31,33.31,0,0,0,7.82-.59l.06,0,3.56-1a1,1,0,0,0,.55-.39c.57-.84,2.26-2.7,5.81-1.8.57.14,1.16.26,1.75.36a2.72,2.72,0,0,1,2.54-1.77h.38c.1-.68.2-1.42.32-2.22a35.73,35.73,0,0,0-2.14-5.16,18.82,18.82,0,0,0-4.3-5.18,23.43,23.43,0,0,1,3.89,5.49S37.21,47,35.5,43.81c-1.38-2.5-.45-3-2.8-6.31a10.67,10.67,0,0,1,5.65,1.68c2.49,1.65,3.36,3.89,2,5.56l2,4.16c.26-1.63.58-3.42,1-5.33h0c-3.05-2.17-2.7-6.41.72-10.43a18.84,18.84,0,0,1,8.77-5.61c-2.37,6.69-.54,7.14-1.65,12.1s-4.8,4.94-6.12,4.74a2,2,0,0,1-.3,0c.76-5.22,4.07-11.19,4.07-11.19A33.76,33.76,0,0,0,44.14,44,84.08,84.08,0,0,0,43,52.48a2.71,2.71,0,0,1,2.61,2.26c.84,0,1.56,0,2.09,0h.45a1.12,1.12,0,0,1,1.12.75c1.17-.7,3.93-2.38,4.83-3s3.15-1.31,4-.7a1,1,0,0,1,.35,1.15c-.5,1.79-9.12,9.22-13.78,11-3.61,1.41-9.72-.22-12.18-1a1,1,0,0,0-.83.12l-1.86,1.22L42.74,71.6,66.08,58.37V32L42.74,18.76Z"/><path class="cls-2" d="M32.74,62.17c1.86.56,8.19,2.36,11.64,1,4.82-1.89,12.93-9.29,13.27-10.5.05-.2,0-.23,0-.26-.45-.31-2.2.09-3.06.7-1.08.77-4.58,2.87-5.3,3.32A3.73,3.73,0,0,1,45.61,59c-2.59.09-5.32,0-6.35,0v.18a.42.42,0,0,1-.41.42.41.41,0,0,1-.41-.41v-.62a.43.43,0,0,1,.13-.3.36.36,0,0,1,.3-.11s3.49.13,6.72,0c2.07-.09,2.93-1.5,2.91-2.2,0-.34-.18-.38-.36-.38h-.45A42.11,42.11,0,0,1,37,54.7c-2.93-.76-4.34.6-4.94,1.45a1.82,1.82,0,0,1-1,.73l-3.55,1h-.07a34.48,34.48,0,0,1-7.8.64L29,63.81l2.2-1.43A1.83,1.83,0,0,1,32.74,62.17Z"/><path class="cls-2" d="M42.66,11.53,13,28.35V62L42.66,78.83,72.35,62V28.35ZM68.22,59.62,42.74,74.05,17.27,59.62V30.74L42.74,16.31,68.22,30.74Z"/></svg>