<svg id="Layer_1" data-name="Layer 1" xmlns="http://www.w3.org/2000/svg" viewBox="0 0 850 180"><defs><style>.cls-1{fill:#760aa3;}.cls-2{fill:#2e4858;}</style></defs><path class="cls-1" d="M205.92,101.15h16.32v1.2h-15v11.16H222v1.2H207.2v11.92h15v1.2H205.92Z"/><path class="cls-1" d="M241.48,115.11,231.4,127.83h-1.68l11-13.68-10.44-13H232l9.44,12,9.44-12h1.72l-10.44,13,11,13.72h-1.68Z"/><path class="cls-1" d="M261.76,101.15H271c5,0,7.8,3.48,7.8,7.56a7.39,7.39,0,0,1-7.8,7.56h-8v11.56h-1.28Zm9.2,1.2H263v12.72H271a6.36,6.36,0,1,0,0-12.72Z"/><path class="cls-1" d="M288,101.15h16.33v1.2H289.24v11.16H304v1.2H289.24v11.92h15.05v1.2H288Z"/><path class="cls-1" d="M322,116.31h-6.4v11.52h-1.28V101.15h9.2c4.32,0,7.88,2.68,7.88,7.56s-3.56,7.6-7.88,7.6l8.24,11.52h-1.64Zm1.52-14h-7.92v12.76h7.92a6.38,6.38,0,1,0,0-12.76Z"/><path class="cls-1" d="M341.45,101.15h1.28v26.68h-1.28Z"/><path class="cls-1" d="M353.77,101.15h16.32v1.2h-15v11.16h14.76v1.2H355.05v11.92h15v1.2H353.77Z"/><path class="cls-1" d="M381.37,103.23v24.6h-1.28V101.15h1.28l18,24.36V101.15h1.28v26.68h-1.28Z"/><path class="cls-1" d="M418.7,102.35h-9v-1.2H429v1.2h-9v25.48H418.7Z"/><path class="cls-1" d="M438.06,101.15h1.28v26.68h-1.28Z"/><path class="cls-1" d="M467,120.67H452.14l-3,7.16H447.7l11.12-26.68h1.52l11.12,26.68H470Zm-14.4-1.2h13.92l-7-16.84Z"/><path class="cls-1" d="M479.82,101.15h1.28v25.48h13.4v1.2H479.82Z"/><path class="cls-1" d="M518.18,101.15h1.28v25.48h13.41v1.2H518.18Z"/><path class="cls-1" d="M542.15,101.15h16.32v1.2h-15v11.16h14.76v1.2H543.43v11.92h15v1.2H542.15Z"/><path class="cls-1" d="M585.11,120.67H570.23l-3,7.16h-1.48l11.12-26.68h1.52l11.12,26.68h-1.48Zm-14.4-1.2h13.92l-7-16.84Z"/><path class="cls-1" d="M605.59,116.31h-6.4v11.52h-1.28V101.15h9.2c4.33,0,7.89,2.68,7.89,7.56s-3.56,7.6-7.89,7.6l8.25,11.52h-1.64Zm1.52-14h-7.92v12.76h7.92a6.38,6.38,0,1,0,0-12.76Z"/><path class="cls-1" d="M626.35,103.23v24.6h-1.28V101.15h1.28l18,24.36V101.15h1.28v26.68h-1.28Z"/><path class="cls-1" d="M656.68,101.15H658v26.68h-1.28Z"/><path class="cls-1" d="M670.28,103.23v24.6H669V101.15h1.28l18,24.36V101.15h1.28v26.68h-1.28Z"/><path class="cls-1" d="M713,100.71a12.94,12.94,0,0,1,9.77,4.12l-.84.88a11.93,11.93,0,0,0-8.93-3.8c-6.68,0-11.92,5.08-11.92,12.6s5.24,12.64,11.92,12.64a12,12,0,0,0,8.49-3.6v-7.32h-11V115h12.29v9a13,13,0,0,1-9.77,4.28c-7.4,0-13.32-5.64-13.32-13.84S705.6,100.71,713,100.71Z"/><path class="cls-2" d="M793.75,65.73c0,8.34,6.27,13.82,14,13.82a14.43,14.43,0,0,0,11-4.84v-10H806.09v4.11H814V73a9.83,9.83,0,0,1-6.31,2.39c-5.27,0-9.19-4.07-9.19-9.66s3.92-9.63,9.19-9.63a8.49,8.49,0,0,1,6.91,3.56l3.83-2.16A12.5,12.5,0,0,0,807.73,52c-7.71,0-14,5.43-14,13.78m-13,13.3h4.51V52.39h-4.67V71.28L767,52.39H762.2V79h4.67V59.62Zm-32.91,0h4.68V52.39h-4.68Zm-18.65.48a12.2,12.2,0,0,0,10.91-6l-4-2a7.92,7.92,0,0,1-6.91,3.87c-5.07,0-9-4-9-9.62s3.91-9.63,9-9.63A8,8,0,0,1,736.12,60l4-2a12.15,12.15,0,0,0-10.91-6,13.39,13.39,0,0,0-13.78,13.78,13.4,13.4,0,0,0,13.78,13.78m-26-18.78c0,2.56-1.91,4.24-4.55,4.24h-6.39V56.5h6.39c2.64,0,4.55,1.68,4.55,4.23m-.4,18.3h5.4l-6.51-10.47A7.47,7.47,0,0,0,708,60.73c0-4.91-3.44-8.34-8.71-8.34h-11.7V79h4.67v-10h4.63ZM654.85,68.52c0,6.55,3.79,11,11.54,11s11.5-4.4,11.5-11V52.39h-4.71v16c0,4.24-2.36,7-6.79,7s-6.83-2.75-6.83-7v-16h-4.71Zm-13.3-2.79c0,5.47-3.48,9.62-8.83,9.62s-8.82-4.15-8.82-9.62,3.43-9.63,8.82-9.63,8.83,4.12,8.83,9.63m-22.45,0c0,7.94,5.64,13.78,13.62,13.78s13.62-5.84,13.62-13.78S640.71,52,632.72,52,619.1,57.78,619.1,65.73m-28.23,9.54c2.35,2.52,5.91,4.24,10.82,4.24,7.19,0,10.31-3.8,10.31-8.23,0-5.79-5.24-7.15-9.63-8.27-3.15-.8-5.87-1.48-5.87-3.55s1.76-3.32,4.51-3.32a10.82,10.82,0,0,1,7.71,3l2.68-3.48a13.89,13.89,0,0,0-10-3.71c-5.83,0-9.7,3.39-9.7,7.79,0,5.63,5.11,6.91,9.46,8,3.24.84,6.07,1.56,6.07,4,0,1.75-1.51,3.63-5.35,3.63a11.53,11.53,0,0,1-8.43-3.67Zm-26-.36V56.5h5.23c6,0,9.15,4.07,9.15,9.23s-3.36,9.18-9.15,9.18ZM560.24,79h9.9c8.31,0,13.94-5.48,13.94-13.3s-5.63-13.34-13.94-13.34h-9.9Zm-19.69,0h5l7.59-26.64h-5.24l-5.15,20.53-5.51-20.53h-3.71L528,72.92l-5.2-20.53h-5.23L525.21,79h5l5.15-19.65Zm-32.87-13.3c0,5.47-3.48,9.62-8.83,9.62S490,71.2,490,65.73s3.44-9.63,8.83-9.63,8.83,4.12,8.83,9.63m-22.45,0c0,7.94,5.63,13.78,13.62,13.78s13.62-5.84,13.62-13.78S506.84,52,498.85,52s-13.62,5.83-13.62,13.78m-12.26-5c0,2.56-1.92,4.24-4.55,4.24H462V56.5h6.39c2.63,0,4.55,1.68,4.55,4.23m-.4,18.3H478l-6.51-10.47a7.46,7.46,0,0,0,6.31-7.83c0-4.91-3.43-8.34-8.7-8.34h-11.7V79H462v-10h4.63Zm-33.86.48a12.19,12.19,0,0,0,10.9-6l-4-2a7.9,7.9,0,0,1-6.9,3.87c-5.08,0-9-4-9-9.62s3.91-9.63,9-9.63a8,8,0,0,1,6.9,3.88l4-2a12.13,12.13,0,0,0-10.9-6,13.39,13.39,0,0,0-13.78,13.78,13.4,13.4,0,0,0,13.78,13.78m-40.3-18.78c0,2.56-1.92,4.24-4.55,4.24h-6.39V56.5h6.39c2.63,0,4.55,1.68,4.55,4.23M398,79h5.39l-6.51-10.47a7.46,7.46,0,0,0,6.31-7.83c0-4.91-3.43-8.34-8.71-8.34h-11.7V79h4.68v-10h4.63Zm-42.25,0H374V74.91H360.43V67.52h13.3V63.41h-13.3V56.5H374V52.39H355.76Zm-20.69,0h4.67V56.5h8.07V52.39H327V56.5h8.07Zm-19.41-18.3c0,2.56-1.92,4.24-4.56,4.24h-6.39V56.5h6.39c2.64,0,4.56,1.68,4.56,4.23m-.4,18.3h5.39l-6.51-10.47a7.46,7.46,0,0,0,6.31-7.83c0-4.91-3.43-8.34-8.71-8.34H300V79h4.67v-10h4.64ZM279.75,56.34l5,13.46h-10ZM288,79h5.11L282.67,52.39h-5.83L266.37,79h5.12l1.95-5.12h12.62Zm-33.19,0h4.68V52.39h-6.59l-7.27,17.93-7.23-17.93h-6.59V79h4.67V58.86L244.65,79h2l8.18-20.17Zm-52.44-3.76c2.36,2.52,5.92,4.24,10.83,4.24,7.19,0,10.3-3.8,10.3-8.23,0-5.79-5.23-7.15-9.62-8.27-3.16-.8-5.87-1.48-5.87-3.55s1.75-3.32,4.51-3.32a10.84,10.84,0,0,1,7.71,3l2.67-3.48a13.87,13.87,0,0,0-10-3.71c-5.83,0-9.71,3.39-9.71,7.79,0,5.63,5.12,6.91,9.47,8,3.23.84,6.07,1.56,6.07,4,0,1.75-1.52,3.63-5.35,3.63A11.52,11.52,0,0,1,205,71.68Z"/><path class="cls-2" d="M46.24,58.89v60.05c6.6.13,13.45-.21,18.29-1.4l.13-.05L73,115.22a2.29,2.29,0,0,0,1.29-.91c1.32-2,5.28-6.32,13.57-4.21,1.33.33,2.71.61,4.09.84a6.34,6.34,0,0,1,5.94-4.13h.88c.23-1.6.47-3.33.75-5.19a83.56,83.56,0,0,0-5-12.07A44.79,44.79,0,0,0,84.45,77.44s6.26,6.51,9.1,12.83c0,0-5.7,3.6-9.69-3.74-3.23-5.85-1.07-7.11-6.55-14.76a24.94,24.94,0,0,1,13.21,3.92c5.82,3.87,7.85,9.11,4.77,13L100,98.42c.62-3.81,1.37-8,2.28-12.46h.07c-7.14-5.07-6.32-15,1.68-24.38a44,44,0,0,1,20.5-13.12c-5.56,15.64-1.28,16.7-3.87,28.29s-11.21,11.54-14.3,11.09a6.08,6.08,0,0,1-.7-.11c1.77-12.21,9.51-26.14,9.51-26.14C107.13,72.89,104.05,87,104.05,87a196.82,196.82,0,0,0-2.69,19.78,6.31,6.31,0,0,1,6.1,5.27c2,0,3.65-.07,4.88-.07h1.06a2.58,2.58,0,0,1,2.6,1.76c2.75-1.65,9.19-5.57,11.3-7.08,2.28-1.64,7.35-3.08,9.38-1.64a2.29,2.29,0,0,1,.82,2.68c-1.16,4.18-21.3,21.55-32.2,25.81-8.43,3.29-22.71-.53-28.46-2.32a2.35,2.35,0,0,0-2,.27l-4.33,2.86,30.22,17.12,54.54-30.9V58.89L100.78,28Z"/><path class="cls-2" d="M77.4,129.42c4.34,1.31,19.13,5.52,27.19,2.36,11.28-4.42,30.24-21.7,31-24.53.12-.46,0-.55-.08-.6-1.05-.74-5.14.19-7.17,1.63-2.51,1.81-10.68,6.7-12.38,7.75-.65,2.65-3.53,5.67-8.5,5.88-6.06.22-12.44.08-14.85,0v.45a1,1,0,0,1-.95,1,1,1,0,0,1-1-1v-1.45a1,1,0,0,1,.3-.69.85.85,0,0,1,.7-.27c.09,0,8.15.31,15.71,0,4.85-.21,6.85-3.5,6.8-5.14,0-.79-.41-.89-.83-.89h-1.06c-4.7.14-15.7.36-25-2-6.86-1.76-10.16,1.4-11.56,3.41a4.23,4.23,0,0,1-2.36,1.68l-8.29,2.28-.1,0H65c-4.67,1.14-11.49,1.56-18.23,1.49l21.9,12.42,5.14-3.35A4.23,4.23,0,0,1,77.4,129.42Z"/><path class="cls-2" d="M100.58,11.07,31.19,50.4V129l69.39,39.32L170,129V50.4Zm59.74,112.39L100.78,157.2,41.24,123.46V56l59.54-33.74L160.32,56Z"/></svg>